<?xml version="1.0" standalone="no"?>
<!DOCTYPE svg PUBLIC "-//W3C//DTD SVG 20010904//EN"
 "http://www.w3.org/TR/2001/REC-SVG-20010904/DTD/svg10.dtd">
<svg version="1.0" xmlns="http://www.w3.org/2000/svg"
 width="433.000000pt" height="337.000000pt" viewBox="0 0 433.000000 337.000000"
 preserveAspectRatio="xMidYMid meet">

<g transform="translate(0.000000,337.000000) scale(0.100000,-0.100000)"
fill="#000000" stroke="none">
<path d="M2093 2951 c-76 -35 -120 -118 -132 -250 -3 -36 -11 -66 -17 -68 -8
-3 -11 42 -10 149 l1 153 -24 3 c-33 5 -45 -11 -46 -66 0 -26 -2 -72 -3 -102
l-2 -55 -34 51 c-135 201 -340 182 -407 -36 -11 -38 -23 -70 -26 -70 -3 0 -18
10 -35 21 -33 24 -108 49 -147 49 -81 0 -168 -61 -207 -144 -34 -72 -33 -187
1 -288 30 -89 30 -86 3 -90 -16 -3 -39 11 -76 44 -29 26 -92 67 -138 90 -93
46 -116 45 -122 -6 -3 -21 2 -28 25 -36 63 -24 138 -67 179 -103 41 -36 44
-42 42 -83 -2 -33 -7 -43 -18 -39 -125 35 -222 39 -292 12 -89 -34 -143 -120
-141 -227 0 -67 20 -115 67 -168 20 -22 36 -42 36 -44 0 -3 -20 -13 -44 -22
-54 -21 -112 -76 -137 -130 -50 -110 5 -248 127 -323 18 -11 18 -12 -6 -29
-43 -31 -102 -96 -116 -130 -18 -43 -18 -125 0 -167 28 -66 95 -104 201 -114
l63 -6 -31 -59 c-41 -80 -48 -166 -18 -225 30 -59 89 -86 179 -81 l69 3 -5
-95 c-4 -84 -2 -101 17 -138 12 -24 36 -52 54 -62 42 -26 116 -26 167 0 22 11
42 20 45 20 4 0 3 -20 -1 -45 l-6 -45 386 0 385 0 17 56 16 56 45 -6 c25 -3
59 -6 74 -6 28 0 29 -2 29 -50 l0 -50 40 0 40 0 0 50 c0 48 1 50 29 50 15 0
48 3 73 6 l45 6 15 -53 15 -54 386 -3 c306 -2 387 0 387 10 0 7 -9 48 -19 91
-10 42 -18 77 -17 77 0 0 23 -7 50 -15 136 -41 251 4 287 112 12 36 8 162 -6
196 -7 16 -2 17 48 11 143 -17 267 73 267 193 0 43 -31 117 -62 150 -12 13
-20 24 -17 26 2 2 34 17 70 35 150 72 170 208 49 327 l-49 48 48 22 c87 41
140 132 127 222 -17 126 -108 193 -263 193 -60 0 -63 1 -63 24 0 22 7 26 57
36 34 7 84 10 121 6 65 -7 92 2 92 30 0 43 -98 64 -210 45 -37 -6 -74 -13 -82
-16 -7 -3 -22 0 -31 8 -17 12 -16 16 17 72 98 162 100 289 7 368 -46 38 -94
50 -177 44 l-72 -5 5 92 c8 133 -11 191 -86 267 -100 100 -212 114 -358 44
l-72 -34 -6 47 c-15 116 -66 191 -145 212 -84 23 -175 -12 -230 -90 l-22 -31
-27 43 c-35 53 -56 73 -104 93 -48 20 -93 19 -144 -4z m-583 -929 c30 -20 83
-71 117 -112 53 -63 68 -75 91 -73 25 2 29 -3 45 -47 28 -78 96 -170 157 -213
134 -93 331 -103 488 -25 41 20 47 27 47 55 0 30 4 33 57 53 88 32 109 63 66
98 -32 26 -68 64 -68 73 0 4 8 5 19 2 14 -3 30 10 63 54 148 192 304 240 409
126 61 -64 82 -147 83 -318 l1 -130 67 -78 c126 -148 189 -310 187 -481 -1
-50 -4 -103 -8 -117 l-6 -27 -139 61 c-145 63 -167 66 -174 19 -4 -26 13 -37
166 -103 67 -29 122 -56 122 -61 0 -11 -54 -117 -72 -141 -12 -16 -22 -13
-146 57 -136 75 -165 83 -177 44 -10 -28 6 -41 136 -113 85 -48 116 -70 112
-81 -5 -14 -161 -144 -173 -144 -4 0 -24 26 -46 57 -46 67 -134 135 -205 158
-111 37 -270 3 -348 -76 -59 -59 -85 -129 -89 -245 l-4 -102 -37 -6 c-46 -7
-248 -6 -281 3 -25 6 -25 8 -26 106 -1 122 -24 184 -90 245 -72 67 -122 84
-239 85 -86 0 -106 -3 -145 -24 -83 -43 -123 -83 -206 -200 -7 -9 -184 134
-184 149 0 5 54 39 121 77 66 37 125 75 130 85 13 23 -23 61 -48 51 -10 -4
-72 -37 -138 -75 -93 -52 -123 -65 -132 -55 -14 15 -73 131 -73 144 0 5 55 33
123 62 152 66 169 77 165 103 -7 48 -30 45 -177 -19 l-139 -60 -6 30 c-11 54
-6 211 9 273 28 118 91 232 190 342 l48 53 2 142 c2 153 13 202 59 282 59 100
182 116 296 37z"/>
<path d="M1330 1945 c-14 -17 -5 -51 15 -59 22 -8 55 -82 62 -137 6 -52 27
-75 57 -63 22 8 29 39 21 92 -9 63 -26 102 -65 145 -34 39 -69 48 -90 22z"/>
<path d="M2817 1921 c-57 -63 -86 -191 -51 -225 18 -19 20 -19 45 -6 13 7 19
21 19 43 0 55 19 103 55 143 40 43 38 39 25 65 -17 31 -54 23 -93 -20z"/>
<path d="M1890 1223 c-83 -30 -80 -147 4 -177 47 -17 116 36 116 89 0 58 -67
107 -120 88z m20 -38 c15 -17 5 -35 -20 -35 -22 0 -33 23 -17 39 15 15 22 14
37 -4z m55 -80 c0 -35 -31 -47 -51 -20 -18 25 0 57 29 53 17 -2 22 -10 22 -33z"/>
<path d="M2278 1215 c-67 -37 -65 -125 3 -161 39 -20 82 -11 109 23 60 77 -28
185 -112 138z m40 -43 c3 -16 -2 -22 -17 -22 -24 0 -35 15 -27 36 9 23 40 13
44 -14z m50 -44 c19 -19 14 -46 -8 -53 -22 -7 -50 9 -50 29 0 15 20 36 35 36
6 0 16 -5 23 -12z"/>
<path d="M2043 1043 c-32 -22 -31 -73 2 -104 13 -13 25 -27 25 -32 0 -19 -68
-47 -115 -47 -59 0 -100 22 -140 74 -28 37 -52 45 -73 24 -48 -48 85 -178 182
-178 26 0 36 -5 41 -21 13 -39 66 -88 108 -100 78 -21 153 12 192 85 17 30 25
36 53 36 50 0 129 47 163 96 32 47 35 64 17 82 -22 22 -46 13 -78 -28 -41 -52
-77 -70 -137 -70 -46 0 -113 29 -113 48 0 5 11 19 25 32 24 23 33 63 17 86
-23 35 -128 46 -169 17z"/>
</g>
</svg>
